<?xml version="1.0" encoding="UTF-8"?>
<svg version="1.1" xmlns="http://www.w3.org/2000/svg" width="500" height="500">
<path d="M0 0 C2.47092711 -0.00321829 4.94185404 -0.00658279 7.41278076 -0.01008606 C12.57011355 -0.01604755 17.72742964 -0.01792882 22.88476562 -0.01733398 C29.48065143 -0.01723204 36.07643038 -0.03093075 42.6722908 -0.04810619 C47.76646413 -0.0592372 52.8606116 -0.06125292 57.95479584 -0.06072426 C60.38677085 -0.06190091 62.81874659 -0.06630496 65.25070953 -0.07405663 C68.65061432 -0.08388721 72.05028654 -0.08096721 75.45019531 -0.07495117 C76.44469696 -0.08057068 77.43919861 -0.08619019 78.46383667 -0.09197998 C92.91921628 -0.02719915 105.93450652 4.44500149 116.81640625 14.203125 C127.74726946 25.71919695 130.84916095 38.61228635 130.83740234 53.98706055 C130.84411957 55.25481827 130.85083679 56.52257599 130.85775757 57.82875061 C130.87533159 61.2877367 130.88010938 64.74662366 130.88138914 68.20565009 C130.88281658 70.37338063 130.8870974 72.54108644 130.89238358 74.70881081 C130.91085782 82.29050911 130.91905776 89.87213736 130.91748047 97.45385742 C130.91628087 104.4896033 130.93735403 111.52504154 130.9689678 118.56070966 C130.99523909 124.62643122 131.0058432 130.692053 131.00456965 136.75783092 C131.00406304 140.369377 131.00957676 143.98064955 131.03092575 147.59213829 C131.0541396 151.6289359 131.04472145 155.66505762 131.03271484 159.7019043 C131.04395386 160.87689484 131.05519287 162.05188538 131.06677246 163.26248169 C130.96462176 176.86367023 127.1115112 188.27913386 117.6328125 198.1640625 C113.07865644 202.38255367 108.12741615 205.48177577 102.546875 208.16796875 C101.93457031 208.46574219 101.32226562 208.76351562 100.69140625 209.0703125 C87.33732507 214.79349015 71.40142202 213.46382569 57.2109375 213.43359375 C54.95999103 213.43494438 52.70904485 213.4368882 50.45809937 213.43939209 C45.75979817 213.44232586 41.06157348 213.43810308 36.36328125 213.42871094 C30.38352662 213.4173308 24.40395188 213.42387807 18.42420387 213.43585587 C13.78096192 213.44313317 9.13776158 213.44075955 4.49451828 213.43560028 C2.29161939 213.43427928 0.08871656 213.43585624 -2.1141777 213.44055939 C-43.46405931 213.50947875 -43.46405931 213.50947875 -60.453125 200.16796875 C-60.453125 199.50796875 -60.453125 198.84796875 -60.453125 198.16796875 C-61.113125 198.16796875 -61.773125 198.16796875 -62.453125 198.16796875 C-73.06569043 185.64723269 -75.75648184 172.59223511 -75.74365234 156.58081055 C-75.75036957 155.36152863 -75.75708679 154.1422467 -75.76400757 152.88601685 C-75.7796553 149.56964915 -75.78635692 146.25353205 -75.78763914 142.93714499 C-75.78906915 140.8575134 -75.79335464 138.77790742 -75.79863358 136.69828224 C-75.8170867 129.42131531 -75.82531003 122.1444212 -75.82373047 114.86743164 C-75.82252996 108.11906559 -75.84362652 101.37101981 -75.8752178 94.62273473 C-75.90149465 88.79900847 -75.91209304 82.97538611 -75.91081965 77.15160114 C-75.91031341 73.68651542 -75.91580718 70.22171491 -75.93717575 66.75668907 C-75.96040239 62.88543925 -75.95096786 59.01461833 -75.93896484 55.14331055 C-75.95020386 54.01821579 -75.96144287 52.89312103 -75.97302246 51.7339325 C-75.861227 37.44773444 -71.07683843 24.93433324 -61.328125 14.48046875 C-43.79230538 -2.25422206 -22.48046083 0.00689748 0 0 Z " fill="#E6F0F1" transform="translate(222.453125,143.83203125)"/>
<path d="M0 0 C16.60204289 2.46278123 31.95889386 6.80542216 45 18 C45 18.66 45 19.32 45 20 C45.54011719 20.2165625 46.08023438 20.433125 46.63671875 20.65625 C49.8270329 22.47024681 52.25134836 24.9117911 54.8125 27.5 C55.60599854 28.29869507 55.60599854 28.29869507 56.41552734 29.11352539 C63.38497655 36.27591897 70.31208717 44.06819785 70.1953125 54.51953125 C70.18886719 55.54111328 70.18242187 56.56269531 70.17578125 57.61523438 C70.15064453 59.19788086 70.15064453 59.19788086 70.125 60.8125 C70.11597656 61.88693359 70.10695313 62.96136719 70.09765625 64.06835938 C70.07415306 66.71246854 70.04129575 69.35611872 70 72 C66.3800518 70.74097937 64.07036579 69.43038824 61.42236328 66.66772461 C60.76462921 65.9903978 60.10689514 65.31307098 59.42922974 64.61521912 C58.3853157 63.51984581 58.3853157 63.51984581 57.3203125 62.40234375 C55.81942736 60.86352551 54.31811197 59.32512683 52.81640625 57.78710938 C50.4648469 55.36106513 48.11832655 52.93054103 45.77978516 50.49194336 C43.51485611 48.1363124 41.23155706 45.79976623 38.9453125 43.46484375 C38.25341827 42.73257065 37.56152405 42.00029755 36.84866333 41.24583435 C32.64308548 36.97606016 30.07558801 35.06766018 24 35 C23.92572162 38.34252724 23.93453047 40.8035914 25 44 C26.31480017 44.70251174 27.651076 45.36547161 29 46 C30.67999268 47.45294189 30.67999268 47.45294189 32.35644531 49.16113281 C32.99100647 49.80230042 33.62556763 50.44346802 34.27935791 51.10406494 C35.29349762 52.14309967 35.29349762 52.14309967 36.328125 53.203125 C37.0359613 53.91853455 37.74379761 54.63394409 38.4730835 55.37103271 C41.49537054 58.42591672 44.50582528 61.49236185 47.51708984 64.55810547 C49.72071012 66.79815714 51.93050651 69.0319873 54.140625 71.265625 C54.80862122 71.9502179 55.47661743 72.63481079 56.16485596 73.34014893 C60.03951613 77.25436244 63.9908322 80.63131261 68.52630615 83.76409912 C69.01262512 84.17194641 69.49894409 84.5797937 70 85 C70 85.66 70 86.32 70 87 C60.20214013 87.31013156 51.31946458 87.46510827 42 84 C41.02675781 83.6596875 40.05351562 83.319375 39.05078125 82.96875 C31.59512884 80.14304819 24.973228 76.32652024 19 71 C19 70.34 19 69.68 19 69 C18.34 69 17.68 69 17 69 C17 68.34 17 67.68 17 67 C16.34 67 15.68 67 15 67 C2.55010449 53.18061598 -2.37520979 38.2182349 -2.25 19.875 C-2.25773438 18.73417969 -2.26546875 17.59335938 -2.2734375 16.41796875 C-2.25983629 10.56264887 -2.01507687 5.51747239 0 0 Z " fill="#06403D" transform="translate(175,215)"/>
<path d="M0 0 C4.79026109 14.69393582 2.36589411 33.28514721 -4.0234375 47.234375 C-12.10391729 62.52763205 -23.97412546 77.73908195 -41 83 C-59.85912469 88.42341929 -59.85912469 88.42341929 -69 88 C-69 85 -69 85 -67.83837891 83.51367188 C-67.04052979 82.74893555 -67.04052979 82.74893555 -66.2265625 81.96875 C-65.3603125 81.12376953 -65.3603125 81.12376953 -64.4765625 80.26171875 C-63.86554688 79.68035156 -63.25453125 79.09898437 -62.625 78.5 C-61.42750837 77.346007 -60.23211263 76.18983423 -59.0390625 75.03125 C-58.23782959 74.26651367 -58.23782959 74.26651367 -57.42041016 73.48632812 C-55.77489288 71.85065968 -55.77489288 71.85065968 -54 69 C-53.34 69 -52.68 69 -52 69 C-51.79375 68.46375 -51.5875 67.9275 -51.375 67.375 C-49.46749574 64.08021991 -46.95180616 61.40636372 -44 59 C-43.34 59 -42.68 59 -42 59 C-42 58.34 -42 57.68 -42 57 C-40.34516392 55.50122497 -38.62409488 54.07511527 -36.875 52.6875 C-35.37453125 51.47513672 -35.37453125 51.47513672 -33.84375 50.23828125 C-32.24144666 48.97712766 -30.62565351 47.73147838 -28.96875 46.54296875 C-25.82669495 44.24033527 -25.02970323 43.1188129 -24.0625 39.25 C-24.041875 38.1775 -24.02125 37.105 -24 36 C-25.03929978 34.75942964 -25.03929978 34.75942964 -27.29296875 34.68359375 C-30.89909901 35.10508949 -31.88914461 36.40877079 -34.3125 39.0625 C-37.05305478 41.96532447 -39.75799569 44.74162554 -42.8125 47.3125 C-47.11925011 50.98411323 -51.0430943 55.01388008 -54.96411133 59.08911133 C-56.27327455 60.42902312 -57.63296079 61.71918942 -59 63 C-59.66 63 -60.32 63 -61 63 C-61.226875 63.53625 -61.45375 64.0725 -61.6875 64.625 C-63.46935182 67.84930329 -65.48082298 70.29649295 -68 73 C-68.99 73 -69.98 73 -71 73 C-71.05421223 69.95809137 -71.09377548 66.91716001 -71.125 63.875 C-71.15013672 62.59109375 -71.15013672 62.59109375 -71.17578125 61.28125 C-71.21306681 56.43412707 -70.89580643 52.55292095 -69 48 C-68.34 48 -67.68 48 -67 48 C-66.896875 47.27167969 -66.79375 46.54335938 -66.6875 45.79296875 C-63.50602991 32.86824651 -47.69217372 19.15528464 -37.05078125 12.0234375 C-26.13334001 5.45340244 -13.04376829 -0.86958455 0 0 Z " fill="#0B5342" transform="translate(326,215)"/>
<path d="M0 0 C0 0.66 0 1.32 0 2 C0.556875 2.2475 1.11375 2.495 1.6875 2.75 C7.04183224 5.64423364 10.36337947 9.47014993 13.5625 14.5625 C13.95308594 15.17730225 14.34367187 15.79210449 14.74609375 16.42553711 C22.53240626 29.04726726 25.16633349 43.12656973 22.0625 57.75 C20.40078155 63.06905206 17.41649687 66.42936033 13.55859375 70.36328125 C10.20973697 73.8143932 7.21608679 77.51124831 4.18725586 81.24194336 C3.14517985 82.51160158 2.07526552 83.75832434 1 85 C0.67 85 0.34 85 0 85 C0 69.49 0 53.98 0 38 C-0.66 38 -1.32 38 -2 38 C-2 37.34 -2 36.68 -2 36 C-3.98 36.66 -5.96 37.32 -8 38 C-8.33 52.85 -8.66 67.7 -9 83 C-12.92372096 81.03813952 -14.4971199 79.60543614 -17.3125 76.375 C-18.09496094 75.47910156 -18.87742188 74.58320313 -19.68359375 73.66015625 C-20.44800781 72.78230469 -21.21242187 71.90445313 -22 71 C-22.67160156 70.27683594 -23.34320313 69.55367188 -24.03515625 68.80859375 C-31.29073519 60.93682976 -33.30715088 53.21607406 -33.1484375 42.56640625 C-32.29226242 27.76358967 -24.6534275 13.76479779 -13.75 3.9375 C-8.97071518 -0.10119316 -6.26461127 -1.42377529 0 0 Z " fill="#179467" transform="translate(255,165)"/>
<path d="M0 0 C5.43443731 0.885733 8.56310494 4.90878611 12.22387695 8.72631836 C12.98609055 9.49702164 13.74830414 10.26772491 14.53361511 11.06178284 C16.9591721 13.5208404 19.36302181 15.99993618 21.7668457 18.48022461 C23.40282185 20.14630776 25.04017731 21.81103771 26.67895508 23.47436523 C30.27623838 27.13059121 33.85995454 30.79952857 37.4322052 34.48020935 C38.59744521 35.67635734 39.77355057 36.86192947 40.9543457 38.04272461 C40.3149707 38.16647461 39.6755957 38.29022461 39.0168457 38.41772461 C38.3362207 38.62397461 37.6555957 38.83022461 36.9543457 39.04272461 C36.4593457 40.03272461 36.4593457 40.03272461 35.9543457 41.04272461 C34.9643457 41.04272461 33.9743457 41.04272461 32.9543457 41.04272461 C32.4593457 42.03272461 32.4593457 42.03272461 31.9543457 43.04272461 C3.34594727 14.43432617 3.34594727 14.43432617 1.55285645 12.63000488 C0.23269744 11.31912076 -1.12326202 10.0443971 -2.48803711 8.7800293 C-4.0456543 7.04272461 -4.0456543 7.04272461 -4.3581543 3.85522461 C-3.93593084 0.05521346 -3.93593084 0.05521346 0 0 Z " fill="#D8E8ED" transform="translate(202.045654296875,248.957275390625)"/>
<path d="M0 0 C1.23026413 -0.00014603 2.46052826 -0.00029205 3.72807312 -0.0004425 C7.07456557 0.00013151 10.42099501 0.00511925 13.76747632 0.01213145 C17.27482747 0.01841653 20.78217961 0.01897285 24.28953552 0.02015686 C30.91911286 0.02325506 37.54867355 0.03144793 44.17824358 0.04150635 C51.73090603 0.05271461 59.28356931 0.05818978 66.83623803 0.06320179 C82.36145671 0.07363192 97.88665882 0.09120188 113.41186523 0.11352539 C106.83675432 6.6886363 89.31830474 4.37962332 80.53213501 4.39141846 C78.38006501 4.38783749 76.22799583 4.38373524 74.07592773 4.37915039 C71.82498126 4.38050102 69.57403508 4.38244484 67.3230896 4.38494873 C62.62478841 4.3878825 57.92656372 4.38365972 53.22827148 4.37426758 C47.24851686 4.36288744 41.26894212 4.36943471 35.28919411 4.38141251 C30.64595216 4.38868981 26.00275182 4.38631619 21.35950851 4.38115692 C19.15660963 4.37983592 16.95370679 4.38141288 14.75081253 4.38611603 C2.4688292 4.40658686 -9.44316918 4.06090613 -21.58813477 2.11352539 C-21.58813477 1.78352539 -21.58813477 1.45352539 -21.58813477 1.11352539 C-14.35815289 0.15380012 -7.28811582 -0.02286784 0 0 Z " fill="#78989F" transform="translate(205.588134765625,352.886474609375)"/>
<path d="M0 0 C2.31 0 4.62 0 7 0 C7.94992546 6.45796098 8.21527642 12.78880804 8.25 19.3125 C8.270625 20.30056641 8.29125 21.28863281 8.3125 22.30664062 C8.31765625 23.25345703 8.3228125 24.20027344 8.328125 25.17578125 C8.34214355 26.45835815 8.34214355 26.45835815 8.35644531 27.7668457 C8 30 8 30 6.79199219 31.86401367 C5 33 5 33 0 32 C0 21.44 0 10.88 0 0 Z " fill="#071925" transform="translate(247,304)"/>
<path d="M0 0 C0 0.66 0 1.32 0 2 C0.556875 2.2475 1.11375 2.495 1.6875 2.75 C6.81084116 5.5193736 10.10609383 9.09923745 13.375 13.875 C14.08398438 14.88304687 14.79296875 15.89109375 15.5234375 16.9296875 C17.25108735 20.52210227 17.04912411 22.22089701 16 26 C14.35 26 12.7 26 11 26 C10.34 23.69 9.68 21.38 9 19 C9.66 19 10.32 19 11 19 C9.87548273 16.0280615 8.77706209 13.66559313 7 11 C4.41619823 10.74969023 4.41619823 10.74969023 2 11 C1.71125 10.05125 1.4225 9.1025 1.125 8.125 C0.23174891 4.94788422 0.23174891 4.94788422 -2 3 C-3.11375 3.61875 -4.2275 4.2375 -5.375 4.875 C-6.00148437 5.22304687 -6.62796875 5.57109375 -7.2734375 5.9296875 C-9.52420733 7.3249611 -10.81339196 8.62678391 -12 11 C-14.5625 11.625 -14.5625 11.625 -17 12 C-16.34 13.98 -15.68 15.96 -15 18 C-16.33333333 18 -17.66666667 18 -19 18 C-22.0745356 18.7763932 -22.0745356 18.7763932 -24 21 C-24.7109375 19.30078125 -24.7109375 19.30078125 -25 17 C-19.91907368 8.1306637 -10.65850932 -2.08536052 0 0 Z " fill="#3CDAA0" transform="translate(255,165)"/>
<path d="M0 0 C0.33 0 0.66 0 1 0 C1.44343899 11.2502113 1.79873035 21.20125638 -6.0625 29.9375 C-6.84753906 30.73800781 -7.63257813 31.53851563 -8.44140625 32.36328125 C-11.79026303 35.8143932 -14.78391321 39.51124831 -17.81274414 43.24194336 C-18.85482015 44.51160158 -19.92473448 45.75832434 -21 47 C-21.33 47 -21.66 47 -22 47 C-22.02488484 42.85571691 -22.04294686 38.71147446 -22.05493164 34.56713867 C-22.0599327 33.15990439 -22.0667357 31.75267523 -22.07543945 30.34545898 C-22.08769159 28.31232431 -22.0932707 26.27925886 -22.09765625 24.24609375 C-22.10289307 23.02591553 -22.10812988 21.8057373 -22.11352539 20.54858398 C-21.99887643 16.96487943 -21.57327963 13.53687745 -21 10 C-19 12 -19 12 -18.77294922 14.24658203 C-18.78342285 15.15778809 -18.79389648 16.06899414 -18.8046875 17.0078125 C-18.81113281 17.99394531 -18.81757813 18.98007813 -18.82421875 19.99609375 C-18.84097656 21.02863281 -18.85773438 22.06117188 -18.875 23.125 C-18.88402344 24.16527344 -18.89304687 25.20554688 -18.90234375 26.27734375 C-18.92596253 28.85179092 -18.95889851 31.42578212 -19 34 C-18.34 34.33 -17.68 34.66 -17 35 C-17 35.66 -17 36.32 -17 37 C-14.76426023 35.26910469 -13.15900387 33.96992362 -12.6875 31.09375 C-12.64625 30.4028125 -12.605 29.711875 -12.5625 29 C-12.31183655 25.46432604 -12.17845796 25.17410533 -9.4375 22.5 C-8.633125 22.005 -7.82875 21.51 -7 21 C-6.67 22.32 -6.34 23.64 -6 25 C-5.34 23.02 -4.68 21.04 -4 19 C-3.34 19 -2.68 19 -2 19 C-1.34 12.73 -0.68 6.46 0 0 Z " fill="#2F6F60" transform="translate(277,203)"/>
<path d="M0 0 C1.77410051 5.31531689 2.2577668 9.85618805 2.125 15.4375 C2.11597656 16.16904297 2.10695313 16.90058594 2.09765625 17.65429688 C2.07436153 19.43634298 2.0385019 21.21821759 2 23 C1.34 22.67 0.68 22.34 0 22 C0.02320313 21.22914063 0.04640625 20.45828125 0.0703125 19.6640625 C0.08835937 18.66117188 0.10640625 17.65828125 0.125 16.625 C0.14820313 15.62726563 0.17140625 14.62953125 0.1953125 13.6015625 C0.27216848 10.83737827 0.27216848 10.83737827 -2 9 C-2.66 9 -3.32 9 -4 9 C-4 7.02 -4 5.04 -4 3 C-5.051875 3.680625 -5.051875 3.680625 -6.125 4.375 C-9.02984591 6.01686943 -11.8139348 7.03677099 -15 8 C-15 7.34 -15 6.68 -15 6 C-15.61875 6.185625 -16.2375 6.37125 -16.875 6.5625 C-19 7 -19 7 -21 6 C-21 6.66 -21 7.32 -21 8 C-21.928125 8.2475 -22.85625 8.495 -23.8125 8.75 C-27.17785609 10.06974749 -28.25915221 10.90515949 -30 14 C-30 14.66 -30 15.32 -30 16 C-30.61875 15.835 -31.2375 15.67 -31.875 15.5 C-33.96063386 14.92365356 -33.96063386 14.92365356 -36 15 C-36.474375 15.495 -36.94875 15.99 -37.4375 16.5 C-39 18 -39 18 -42 18 C-39.54798352 11.34452669 -31.40398307 8.59830409 -25.37109375 5.765625 C-17.26339644 2.3819953 -8.86714161 -0.59114277 0 0 Z " fill="#2CA57E" transform="translate(326,215)"/>
<path d="M0 0 C4.28950759 0.16498106 6.53376111 0.65032083 10 3.25 C12 6 12 6 11.8125 8.8125 C11.544375 9.534375 11.27625 10.25625 11 11 C12.1446875 11.1546875 12.1446875 11.1546875 13.3125 11.3125 C16.19700648 12.05039701 17.35495989 12.53243984 19 15 C18.6875 17.1875 18.6875 17.1875 18 19 C16.3125 19.6875 16.3125 19.6875 14 20 C8.16349727 17.40599879 2.52025452 12.28038178 -1 7 C-1.1875 3.875 -1.1875 3.875 -1 1 C-0.67 0.67 -0.34 0.34 0 0 Z " fill="#E2F0F5" transform="translate(199,249)"/>
<path d="M0 0 C2 1.375 2 1.375 4 3 C4 3.66 4 4.32 4 5 C4.556875 5.20625 5.11375 5.4125 5.6875 5.625 C8.88055241 7.5235717 11.30664253 9.69357355 13 13 C12.8125 16.9375 12.8125 16.9375 12.3984375 18.96484375 C11.80406867 22.00078647 11.93571891 24.91450761 12 28 C10.91719408 26.37579112 9.8416587 24.74613477 8.80859375 23.08984375 C5.30130984 17.58410747 1.30995969 12.83427846 -3.14453125 8.06640625 C-5 6 -5 6 -6 4 C-5.01 4 -4.02 4 -3 4 C-3 4.66 -3 5.32 -3 6 C-2.01 6 -1.02 6 0 6 C0 4.02 0 2.04 0 0 Z " fill="#D6E7EA" transform="translate(233,236)"/>
<path d="M0 0 C0.33 0 0.66 0 1 0 C0.99815641 0.6456831 0.99631283 1.2913662 0.99441338 1.95661545 C0.95025484 17.66367902 0.91715342 33.37072103 0.89637566 49.07783127 C0.88606075 56.67365497 0.87199634 64.26943726 0.84912109 71.86523438 C0.82919376 78.48532109 0.81628512 85.1053778 0.81182301 91.72549367 C0.80921451 95.23116472 0.80307899 98.73674994 0.78853989 102.24239349 C0.77244534 106.15477616 0.7720199 110.06707466 0.77294922 113.97949219 C0.76575867 115.14330414 0.75856812 116.30711609 0.75115967 117.50619507 C0.753909 118.57187714 0.75665833 119.6375592 0.75949097 120.73553467 C0.75764738 121.66101482 0.75580379 122.58649498 0.75390434 123.54001999 C0.85427507 126.02660174 0.85427507 126.02660174 2.06971931 128.12590408 C3 130 3 130 2.125 133.25 C1.568125 134.61125 1.568125 134.61125 1 136 C0.67 136 0.34 136 0 136 C-0.8026185 132.47225459 -1.12551298 129.21915768 -1.12698364 125.60423279 C-1.12980347 124.53454254 -1.13262329 123.46485229 -1.13552856 122.36274719 C-1.13350433 121.19946396 -1.1314801 120.03618073 -1.12939453 118.83764648 C-1.13114685 117.60463806 -1.13289917 116.37162964 -1.13470459 115.10125732 C-1.13834782 111.72740386 -1.13749932 108.35361184 -1.1343255 104.97976184 C-1.13179014 101.44622895 -1.13414267 97.91269865 -1.13571167 94.37916565 C-1.13752968 88.44686411 -1.13513645 82.51457504 -1.13037109 76.58227539 C-1.12492667 69.72546308 -1.12669392 62.86868049 -1.1321975 56.01186889 C-1.13673611 50.12130588 -1.13737558 44.23075181 -1.13475883 38.34018761 C-1.1332005 34.82344549 -1.1329902 31.30671734 -1.13629532 27.78997612 C-1.13972144 23.87095866 -1.13497206 19.95197448 -1.12939453 16.03295898 C-1.13141876 14.86765152 -1.13344299 13.70234406 -1.13552856 12.50172424 C-1.13270874 11.43485382 -1.12988892 10.3679834 -1.12698364 9.26878357 C-1.12660662 8.34242316 -1.12622959 7.41606276 -1.12584114 6.46163082 C-1.00842387 4.16478279 -0.64789575 2.19979748 0 0 Z " fill="#CDDCE2" transform="translate(148,182)"/>
<path d="M0 0 C3.14575332 1.41137593 5.45266773 3.12400487 8 5.4375 C10.03635624 7.27897059 12.00980004 9.00695871 14.25 10.59765625 C14.8275 11.06042969 15.405 11.52320313 16 12 C16 12.66 16 13.32 16 14 C10.54230189 14.11138159 5.38490641 13.91657981 0 13 C0 12.34 0 11.68 0 11 C-1.32 10.67 -2.64 10.34 -4 10 C-3.34 8.68 -2.68 7.36 -2 6 C-1.34 6 -0.68 6 0 6 C-0.33 5.01 -0.66 4.02 -1 3 C-0.34 3 0.32 3 1 3 C0.67 2.01 0.34 1.02 0 0 Z M2 3 C1.67 3.66 1.34 4.32 1 5 C1.66 5 2.32 5 3 5 C2.67 4.34 2.34 3.68 2 3 Z " fill="#071621" transform="translate(229,288)"/>
<path d="M0 0 C0.66 0.99 1.32 1.98 2 3 C-1 9 -4 15 -7 21 C-7.66 21 -8.32 21 -9 21 C-9.33 22.98 -9.66 24.96 -10 27 C-10.33 27 -10.66 27 -11 27 C-11 20.73 -11 14.46 -11 8 C-9.68 7.67 -8.36 7.34 -7 7 C-5.63755204 5.35704805 -4.30135125 3.69175663 -3 2 C-2.34 2 -1.68 2 -1 2 C-0.67 1.34 -0.34 0.68 0 0 Z " fill="#E9F2F8" transform="translate(266,242)"/>
<path d="M0 0 C0.33 0 0.66 0 1 0 C1.02932572 3.18748029 1.04690739 6.37492528 1.0625 9.5625 C1.07087891 10.45775391 1.07925781 11.35300781 1.08789062 12.27539062 C1.10629571 17.29997943 0.86266398 22.04817291 0 27 C3.04913228 28.01111093 3.04913228 28.01111093 6 27 C6.33 29.31 6.66 31.62 7 34 C7.99 34.33 8.98 34.66 10 35 C10 35.66 10 36.32 10 37 C11.98 36.505 11.98 36.505 14 36 C14.33 36.99 14.66 37.98 15 39 C14.01 39.99 13.02 40.98 12 42 C4.47012851 36.11868026 -1.28096876 30.3366753 -2.7578125 20.6015625 C-3.54380353 12.15849758 -3.54380353 12.15849758 -3 8 C-2.34 7.34 -1.68 6.68 -1 6 C-0.60235737 4.01178687 -0.26224651 2.01055661 0 0 Z " fill="#13543F" transform="translate(225,197)"/>
<path d="M0 0 C0.66 0.99 1.32 1.98 2 3 C1.01 3.99 0.02 4.98 -1 6 C-0.67 6.33 -0.34 6.66 0 7 C-0.33 7.66 -0.66 8.32 -1 9 C-0.01 9.33 0.98 9.66 2 10 C2 9.34 2 8.68 2 8 C2.66 8.33 3.32 8.66 4 9 C1.69 11.64 -0.62 14.28 -3 17 C-3.33 16.34 -3.66 15.68 -4 15 C-4.86625 15.495 -4.86625 15.495 -5.75 16 C-8 17 -8 17 -12 17 C-12.33 15.35 -12.66 13.7 -13 12 C-12.01 12 -11.02 12 -10 12 C-9.773125 11.46375 -9.54625 10.9275 -9.3125 10.375 C-6.94340796 6.08807155 -4.07057819 2.7137188 0 0 Z " fill="#DDEAF0" transform="translate(268,276)"/>
<path d="M0 0 C1.60746056 0.42523816 3.21089836 0.86570126 4.8125 1.3125 C6.15248047 1.67794922 6.15248047 1.67794922 7.51953125 2.05078125 C10.11528013 3.04411507 11.38922208 3.74705148 13 6 C13 7.32 13 8.64 13 10 C13.56847656 10.31453125 14.13695312 10.6290625 14.72265625 10.953125 C19.50161643 13.60189759 24.26220422 16.27828753 29 19 C24.1586313 20.61378957 20.43971437 18.14968929 16 16 C12.86262142 14.18677973 9.771754 12.34327029 7 10 C7 9.34 7 8.68 7 8 C6.34 8 5.68 8 5 8 C3.7109375 6.50390625 3.7109375 6.50390625 2.375 4.5625 C1.92898437 3.92441406 1.48296875 3.28632813 1.0234375 2.62890625 C0 1 0 1 0 0 Z " fill="#C7DBE3" transform="translate(155,334)"/>
<path d="M0 0 C2 2 2 2 2.22705078 4.24658203 C2.21657715 5.15778809 2.20610352 6.06899414 2.1953125 7.0078125 C2.18886719 7.99394531 2.18242187 8.98007813 2.17578125 9.99609375 C2.15902344 11.02863281 2.14226562 12.06117188 2.125 13.125 C2.11597656 14.16527344 2.10695313 15.20554688 2.09765625 16.27734375 C2.07403747 18.85179092 2.04110149 21.42578212 2 24 C2.66 24.33 3.32 24.66 4 25 C4 25.66 4 26.32 4 27 C4.66 27 5.32 27 6 27 C5.49381745 31.38691545 2.86917019 33.84391279 0 37 C-0.33 37 -0.66 37 -1 37 C-1.02488484 32.85571691 -1.04294686 28.71147446 -1.05493164 24.56713867 C-1.0599327 23.15990439 -1.0667357 21.75267523 -1.07543945 20.34545898 C-1.08769159 18.31232431 -1.0932707 16.27925886 -1.09765625 14.24609375 C-1.10289307 13.02591553 -1.10812988 11.8057373 -1.11352539 10.54858398 C-0.99887643 6.96487943 -0.57327963 3.53687745 0 0 Z " fill="#153B33" transform="translate(256,213)"/>
<path d="M0 0 C10.22317646 1.30058162 20.24078431 7.33943432 28 14 C28 14.66 28 15.32 28 16 C28.639375 16.28875 29.27875 16.5775 29.9375 16.875 C32 18 32 18 33 20 C30 21 30 21 27 21 C24.64276511 18.46815512 24 17.52809907 24 14 C21.35261084 12.5393715 20.10551666 12 17 12 C14.86209519 10.11361341 13.27855912 8.55711823 12 6 C8.54956883 4.84985628 5.64717645 4 2 4 C1.34 3.34 0.68 2.68 0 2 C0 1.34 0 0.68 0 0 Z M26 16 C27 18 27 18 27 18 Z " fill="#19715F" transform="translate(192,219)"/>
<path d="M0 0 C0 0.66 0 1.32 0 2 C0.66 2 1.32 2 2 2 C2 17.51 2 33.02 2 49 C1.67 49 1.34 49 1 49 C1 33.82 1 18.64 1 3 C-0.98 3.33 -2.96 3.66 -5 4 C-5.33 14.23 -5.66 24.46 -6 35 C-6.33 35 -6.66 35 -7 35 C-7.07405887 30.33694962 -7.12855763 25.67424016 -7.16479492 21.01074219 C-7.17989814 19.42376749 -7.20038223 17.83683463 -7.22631836 16.25 C-7.26263595 13.97124927 -7.27971023 11.69304942 -7.29296875 9.4140625 C-7.30845261 8.70255035 -7.32393646 7.99103821 -7.33988953 7.25796509 C-7.34057617 5.25634766 -7.34057617 5.25634766 -7 2 C-4 0 -4 0 0 0 Z " fill="#C7E2E0" transform="translate(253,201)"/>
<path d="M0 0 C2.31 0 4.62 0 7 0 C7.98831156 6.53686384 8.11883529 12.89577115 8.0625 19.5 C8.05798828 20.51320313 8.05347656 21.52640625 8.04882812 22.5703125 C8.03714593 25.04693827 8.02076582 27.52343657 8 30 C7.67 30 7.34 30 7 30 C6.67 23.4 6.34 16.8 6 10 C4.35 10 2.7 10 1 10 C0.67 10.99 0.34 11.98 0 13 C0 8.71 0 4.42 0 0 Z " fill="#3D525C" transform="translate(247,304)"/>
<path d="M0 0 C0.66 0 1.32 0 2 0 C1.45987807 3.88887793 0.35992667 5.92183478 -2 9 C-2 9.99 -2 10.98 -2 12 C-2.99 12 -3.98 12 -5 12 C-6.76462683 15.08809695 -7 16.23312136 -7 20 C-7.99 20.33 -8.98 20.66 -10 21 C-11.02281518 23.09719872 -11.02281518 23.09719872 -11.6875 25.5625 C-12.06455078 26.80193359 -12.06455078 26.80193359 -12.44921875 28.06640625 C-12.63097656 28.70449219 -12.81273437 29.34257812 -13 30 C-13.33 30 -13.66 30 -14 30 C-14.125 22.375 -14.125 22.375 -13 19 C-12.34 19 -11.68 19 -11 19 C-10.90460938 18.27941406 -10.80921875 17.55882812 -10.7109375 16.81640625 C-9.89161768 13.57063927 -8.59740318 11.62978873 -6.625 8.9375 C-6.01914062 8.10089844 -5.41328125 7.26429688 -4.7890625 6.40234375 C-4.19867188 5.60957031 -3.60828125 4.81679687 -3 4 C-2.47148437 3.23816406 -1.94296875 2.47632813 -1.3984375 1.69140625 C-0.93695313 1.13324219 -0.47546875 0.57507813 0 0 Z " fill="#134039" transform="translate(270,244)"/>
<path d="M0 0 C-0.19557016 4.20475835 -0.76243744 5.74586331 -3.6875 8.875 C-7.2470284 11.15847105 -8.87230593 11.49139215 -13 11 C-12.319375 10.1646875 -12.319375 10.1646875 -11.625 9.3125 C-9.89852207 7.0571454 -9.89852207 7.0571454 -9 4.375 C-7.1314303 -0.06285304 -4.36292987 -0.23583405 0 0 Z M-14 11 C-13.67 11.99 -13.34 12.98 -13 14 C-13.66 14 -14.32 14 -15 14 C-14.67 13.01 -14.34 12.02 -14 11 Z " fill="#EBF2F6" transform="translate(303,252)"/>
<path d="M0 0 C0.43570313 0.37511719 0.87140625 0.75023437 1.3203125 1.13671875 C5.18607599 4.45859777 9.07657648 7.74642927 13 11 C12.360625 11.28875 11.72125 11.5775 11.0625 11.875 C8.84793921 12.82823451 8.84793921 12.82823451 8 15 C7.01 15 6.02 15 5 15 C5.226875 14.4225 5.45375 13.845 5.6875 13.25 C6.27095593 10.89006205 6.27095593 10.89006205 4.5625 8.875 C4.046875 8.25625 3.53125 7.6375 3 7 C3 6.34 3 5.68 3 5 C2.01 5.33 1.02 5.66 0 6 C-1.125 2.25 -1.125 2.25 0 0 Z M0 9 C2.78388975 10.70625501 3.85384206 11.47626739 4.75 14.6875 C4.8325 15.450625 4.915 16.21375 5 17 C2.69 15.02 0.38 13.04 -2 11 C-1.34 10.34 -0.68 9.68 0 9 Z " fill="#D1DEE4" transform="translate(230,275)"/>
<path d="M0 0 C0.66 0 1.32 0 2 0 C0.85904972 9.06858754 -2.1638953 18.13837425 -9.375 24.1875 C-10.24125 24.785625 -11.1075 25.38375 -12 26 C-11.625 23.5625 -11.625 23.5625 -11 21 C-10.34 20.67 -9.68 20.34 -9 20 C-8.27095914 18.35965807 -7.61344757 16.68698082 -7 15 C-6 12.5 -6 12.5 -5 10 C-4.34 10 -3.68 10 -3 10 C-3.33 9.01 -3.66 8.02 -4 7 C-3.01 7 -2.02 7 -1 7 C-0.67 4.69 -0.34 2.38 0 0 Z " fill="#C2D4DA" transform="translate(350,317)"/>
<path d="M0 0 C-0.66 0.66 -1.32 1.32 -2 2 C-2.66 1.67 -3.32 1.34 -4 1 C-4 1.66 -4 2.32 -4 3 C-5.3921875 3.37125 -5.3921875 3.37125 -6.8125 3.75 C-10.17785609 5.06974749 -11.25915221 5.90515949 -13 9 C-13 9.66 -13 10.32 -13 11 C-13.61875 10.835 -14.2375 10.67 -14.875 10.5 C-16.96063386 9.92365356 -16.96063386 9.92365356 -19 10 C-19.474375 10.495 -19.94875 10.99 -20.4375 11.5 C-22 13 -22 13 -25 13 C-23.49636449 8.81195999 -20.98028148 7.49820936 -17.1875 5.375 C-16.14980469 4.78460938 -15.11210937 4.19421875 -14.04296875 3.5859375 C-9.07557672 0.99702715 -5.64864015 -0.26272745 0 0 Z " fill="#21926D" transform="translate(309,220)"/>
<path d="M0 0 C0.66 0 1.32 0 2 0 C2 0.66 2 1.32 2 2 C2.66 2.33 3.32 2.66 4 3 C4.33 3.66 4.66 4.32 5 5 C4.34 5 3.68 5 3 5 C3 5.66 3 6.32 3 7 C2.01 7 1.02 7 0 7 C-0.33 8.65 -0.66 10.3 -1 12 C-5.455 12.495 -5.455 12.495 -10 13 C-9.67 11.68 -9.34 10.36 -9 9 C-6.5625 7.6875 -6.5625 7.6875 -4 7 C-3.34 7.33 -2.68 7.66 -2 8 C-2.061875 6.8553125 -2.061875 6.8553125 -2.125 5.6875 C-2 3 -2 3 0 0 Z " fill="#ECF6F9" transform="translate(279,224)"/>
<path d="M0 0 C1.65 0.33 3.3 0.66 5 1 C4.566875 1.8353125 4.566875 1.8353125 4.125 2.6875 C2.92460325 4.97532748 2.92460325 4.97532748 2.3125 7.5 C0.32841057 11.27921797 -2.16413387 12.18301078 -6 14 C-6.99 14 -7.98 14 -9 14 C-7.60667426 10.63279613 -6.0210714 9.0140476 -3 7 C-2.34 7.33 -1.68 7.66 -1 8 C-1.33 6.68 -1.66 5.36 -2 4 C-1.34 4 -0.68 4 0 4 C0 2.68 0 1.36 0 0 Z " fill="#07292E" transform="translate(298,281)"/>
<path d="M0 0 C1.65 0 3.3 0 5 0 C3.6489735 3.01015294 2.13664313 5.11967466 -0.1875 7.453125 C-0.80367188 8.071875 -1.41984375 8.690625 -2.0546875 9.328125 C-3.01761719 10.27945312 -3.01761719 10.27945312 -4 11.25 C-4.64195312 11.8996875 -5.28390625 12.549375 -5.9453125 13.21875 C-6.86957031 14.13914062 -6.86957031 14.13914062 -7.8125 15.078125 C-8.37582031 15.63918945 -8.93914062 16.20025391 -9.51953125 16.77832031 C-11 18 -11 18 -13 18 C-13 17.01 -13 16.02 -13 15 C-12.01 14.67 -11.02 14.34 -10 14 C-9.67 11.69 -9.34 9.38 -9 7 C-5.535 6.505 -5.535 6.505 -2 6 C-1.34 4.02 -0.68 2.04 0 0 Z " fill="#153933" transform="translate(281,257)"/>
<path d="M0 0 C4.00291641 3.66934004 6.69974484 7.04560426 9 12 C8.75 14.9375 8.75 14.9375 8 17 C6.35 17 4.7 17 3 17 C2.34 14.69 1.68 12.38 1 10 C1.66 10 2.32 10 3 10 C2.690625 9.278125 2.38125 8.55625 2.0625 7.8125 C1.07439461 5.19692691 0.4712246 2.74881018 0 0 Z " fill="#23BB7F" transform="translate(263,174)"/>
<path d="M0 0 C2.97 0.33 5.94 0.66 9 1 C7.02 1.99 7.02 1.99 5 3 C1.8850556 6.17170877 1.60503369 8.70121964 1.4375 13.0625 C1.2080316 18.6879526 1.2080316 18.6879526 -1 22 C-2.30816086 14.15103487 -2.53715066 7.61145197 0 0 Z " fill="#1D5F54" transform="translate(175,215)"/>
<path d="M0 0 C2.475 0.99 2.475 0.99 5 2 C4.67 2.99 4.34 3.98 4 5 C4.66 5.33 5.32 5.66 6 6 C5.34 8.31 4.68 10.62 4 13 C3.34 13 2.68 13 2 13 C1.67 14.98 1.34 16.96 1 19 C0.67 19 0.34 19 0 19 C0 12.73 0 6.46 0 0 Z " fill="#D6E5E6" transform="translate(255,250)"/>
<path d="M0 0 C-3.58995783 3.58995783 -8.34662305 3.07083634 -13.1875 3.125 C-21.80188117 3.05965703 -30.40230977 2.50363039 -39 2 C-39 1.67 -39 1.34 -39 1 C-35.05314076 0.85527413 -31.10620179 0.71296953 -27.15917969 0.57275391 C-25.16857531 0.5015585 -23.17803662 0.42853408 -21.1875 0.35546875 C-14.12135412 0.10565551 -7.07068378 -0.07506476 0 0 Z " fill="#A9BEC5" transform="translate(319,353)"/>
<path d="M0 0 C0.33 0 0.66 0 1 0 C1.02940458 3.16664666 1.04693315 6.33325747 1.0625 9.5 C1.07087891 10.386875 1.07925781 11.27375 1.08789062 12.1875 C1.10763596 17.55823086 0.78835893 22.68633663 0 28 C-3.42870084 22.05691854 -3.71321498 14.72114454 -3 8 C-2.34 7.34 -1.68 6.68 -1 6 C-0.60235737 4.01178687 -0.26224651 2.01055661 0 0 Z " fill="#216B54" transform="translate(225,197)"/>
<path d="M0 0 C3.37462715 0.54723683 5.08235 1.0549 8 3 C9.32 3 10.64 3 12 3 C12.33 2.34 12.66 1.68 13 1 C14.65 1 16.3 1 18 1 C16.625 3 16.625 3 15 5 C14.34 5 13.68 5 13 5 C13 5.66 13 6.32 13 7 C10.69 7 8.38 7 6 7 C6 6.34 6 5.68 6 5 C5.34 5 4.68 5 4 5 C2.61767557 3.37373596 1.28062485 1.7074998 0 0 Z " fill="#C0D2D7" transform="translate(241,297)"/>
<path d="M0 0 C0.33 0 0.66 0 1 0 C1.01981934 1.06959961 1.03963867 2.13919922 1.06005859 3.24121094 C1.1362098 7.21475512 1.22491242 11.18793766 1.31738281 15.16113281 C1.35563327 16.87981011 1.39049303 18.59856638 1.421875 20.31738281 C1.46761128 22.7900004 1.52559084 25.26207613 1.5859375 27.734375 C1.59748871 28.50118591 1.60903992 29.26799683 1.62094116 30.05804443 C1.72792147 33.93698871 2.15215398 36.61048319 4 40 C3.125 43.25 3.125 43.25 2 46 C1.67 46 1.34 46 1 46 C-0.24551699 41.18601219 -0.12689044 36.47653113 -0.09765625 31.54296875 C-0.0962413 30.64000565 -0.09482635 29.73704254 -0.09336853 28.80671692 C-0.08778823 25.93361037 -0.07523934 23.06058284 -0.0625 20.1875 C-0.05748245 18.23502717 -0.05291999 16.28255311 -0.04882812 14.33007812 C-0.03782525 9.55335515 -0.02057418 4.77669096 0 0 Z " fill="#C4D4DA" transform="translate(147,272)"/>
<path d="M0 0 C0.33 1.98 0.66 3.96 1 6 C0.01 6.66 -0.98 7.32 -2 8 C-2.99 7.34 -3.98 6.68 -5 6 C-8.11785113 6.64644661 -8.11785113 6.64644661 -9 9 C-9.66 8.01 -10.32 7.02 -11 6 C-9.92781799 4.98805294 -8.84173622 3.99081943 -7.75 3 C-7.14671875 2.443125 -6.5434375 1.88625 -5.921875 1.3125 C-4 0 -4 0 0 0 Z " fill="#0E7553" transform="translate(287,232)"/>
<path d="M0 0 C3.125 0.375 3.125 0.375 6 1 C6 1.66 6 2.32 6 3 C6.8353125 3.3403125 6.8353125 3.3403125 7.6875 3.6875 C10.63246684 5.35896766 12.68156544 7.55276352 15 10 C13 12 13 12 10.375 12.125 C9.59125 12.08375 8.8075 12.0425 8 12 C7 9 6 6 5 3 C2.69 2.67 0.38 2.34 -2 2 C-1.34 1.34 -0.68 0.68 0 0 Z " fill="#44D29E" transform="translate(249,164)"/>
<path d="M0 0 C1.9375 0.375 1.9375 0.375 4 1 C4.33 1.66 4.66 2.32 5 3 C7.10579963 3.99182043 7.10579963 3.99182043 9.625 4.875 C14.04725718 6.56511553 17.9605506 8.54120471 22 11 C17.1586313 12.61378957 13.43971437 10.14968929 9 8 C5.86262142 6.18677973 2.771754 4.34327029 0 2 C0 1.34 0 0.68 0 0 Z " fill="#7B97A1" transform="translate(162,342)"/>
<path d="M0 0 C0 0.99 0 1.98 0 3 C-0.66 3.66 -1.32 4.32 -2 5 C-1.63723355 7.82957829 -0.90305236 10.29084291 0 13 C-1.33333333 13 -2.66666667 13 -4 13 C-7.0745356 13.7763932 -7.0745356 13.7763932 -9 16 C-9.73828125 14.3203125 -9.73828125 14.3203125 -10 12 C-8.41796875 9.4921875 -8.41796875 9.4921875 -6.1875 6.875 C-5.45917969 6.00617188 -4.73085937 5.13734375 -3.98046875 4.2421875 C-2.69677787 2.788857 -1.37113672 1.37113672 0 0 Z " fill="#31C28F" transform="translate(240,170)"/>
<path d="M0 0 C0.78375 0.04125 1.5675 0.0825 2.375 0.125 C-1.92739561 5.17563833 -7.76434834 8.47257067 -14.1875 9.9375 C-14.991875 9.999375 -15.79625 10.06125 -16.625 10.125 C-16.625 9.465 -16.625 8.805 -16.625 8.125 C-15.78195312 7.71507812 -14.93890625 7.30515625 -14.0703125 6.8828125 C-12.97460938 6.34398437 -11.87890625 5.80515625 -10.75 5.25 C-9.11417969 4.44949219 -9.11417969 4.44949219 -7.4453125 3.6328125 C-0.71384074 0.03399242 -0.71384074 0.03399242 0 0 Z " fill="#92AFB9" transform="translate(335.625,342.875)"/>
<path d="M0 0 C0.33 0 0.66 0 1 0 C1.58432525 7.45014687 -0.21832654 14.08642473 -3 21 C-3.66 21.33 -4.32 21.66 -5 22 C-5.33 20.02 -5.66 18.04 -6 16 C-5.01 16 -4.02 16 -3 16 C-2.67 14.35 -2.34 12.7 -2 11 C-3.32 10.34 -4.64 9.68 -6 9 C-5.34 8.67 -4.68 8.34 -4 8 C-3.34 8.33 -2.68 8.66 -2 9 C-2 6.69 -2 4.38 -2 2 C-1.34 2 -0.68 2 0 2 C0 1.34 0 0.68 0 0 Z " fill="#1F6557" transform="translate(326,239)"/>
<path d="M0 0 C0.33 0.66 0.66 1.32 1 2 C2.670625 1.9690625 2.670625 1.9690625 4.375 1.9375 C8 2 8 2 10 3 C10 3.66 10 4.32 10 5 C9.34 5 8.68 5 8 5 C7.34 6.32 6.68 7.64 6 9 C5.46890625 8.59007812 4.9378125 8.18015625 4.390625 7.7578125 C3.68421875 7.21898437 2.9778125 6.68015625 2.25 6.125 C1.55390625 5.59132812 0.8578125 5.05765625 0.140625 4.5078125 C-1.84722603 3.10761086 -3.79843386 2.02144735 -6 1 C-4.02 0.67 -2.04 0.34 0 0 Z " fill="#0D4D49" transform="translate(206,247)"/>
<path d="M0 0 C0.33 0.99 0.66 1.98 1 3 C0.236875 3.20625 -0.52625 3.4125 -1.3125 3.625 C-6.49898594 5.55894391 -11.19033084 8.2785146 -16 11 C-16.33 10.34 -16.66 9.68 -17 9 C-16.0625 6.375 -16.0625 6.375 -15 4 C-14.01 4.66 -13.02 5.32 -12 6 C-9.84725052 5.69159401 -9.84725052 5.69159401 -8 5 C-8 4.34 -8 3.68 -8 3 C-5.36 2.01 -2.72 1.02 0 0 Z " fill="#CCE1E5" transform="translate(337,340)"/>
<path d="M0 0 C0.66 0.33 1.32 0.66 2 1 C4.09821215 0.60061233 4.09821215 0.60061233 6 0 C4.62901008 2.95290136 3.22467373 5.60419752 1 8 C-0.32 8 -1.64 8 -3 8 C-3.33 6.35 -3.66 4.7 -4 3 C-2.68 2.67 -1.36 2.34 0 2 C0 1.34 0 0.68 0 0 Z " fill="#0C4340" transform="translate(309,272)"/>
<path d="M0 0 C0.66 0.33 1.32 0.66 2 1 C1.835 2.175625 1.67 3.35125 1.5 4.5625 C1.01271488 8.41273873 0.91922043 12.12258073 1 16 C-0.68156755 13.47764868 -2.16468006 10.96413358 -3.625 8.3125 C-4.29402344 7.10013672 -4.29402344 7.10013672 -4.9765625 5.86328125 C-5.31429687 5.24839844 -5.65203125 4.63351563 -6 4 C-5.01 4 -4.02 4 -3 4 C-2.34 3.01 -1.68 2.02 -1 1 C-0.67 0.67 -0.34 0.34 0 0 Z " fill="#CADFE2" transform="translate(244,248)"/>
<path d="M0 0 C0.66 0.99 1.32 1.98 2 3 C0.625 4.5 0.625 4.5 -1 6 C-1.66 6 -2.32 6 -3 6 C-3 6.66 -3 7.32 -3 8 C-4.30582947 9.03565785 -5.64377755 10.03126968 -7 11 C-8.01801357 11.98165594 -9.0246803 12.97591432 -10 14 C-10.99 13.67 -11.98 13.34 -13 13 C-12.01 12.67 -11.02 12.34 -10 12 C-9.31379969 10.67661368 -8.65213539 9.34050052 -8 8 C-5.4752714 4.76316846 -3.42401012 2.28267342 0 0 Z " fill="#C9DCE5" transform="translate(268,276)"/>
<path d="M0 0 C-1.08682976 3.26048928 -1.7072838 3.78746043 -4.3125 5.8125 C-7.67359246 8.57191541 -9.78285658 11.27519905 -12 15 C-12.93065133 12.39417629 -13.14917407 11.35801776 -12.0625 8.75 C-11.711875 8.1725 -11.36125 7.595 -11 7 C-10.34 7 -9.68 7 -9 7 C-8.67 6.01 -8.34 5.02 -8 4 C-7.01 4 -6.02 4 -5 4 C-4.67 3.01 -4.34 2.02 -4 1 C-2 0 -2 0 0 0 Z " fill="#D8FBF3" transform="translate(244,166)"/>
<path d="M0 0 C2.33944736 0.28730055 4.6739143 0.61936779 7 1 C6.67 1.66 6.34 2.32 6 3 C5.01 3.33 4.02 3.66 3 4 C3 5.98 3 7.96 3 10 C2.34 10 1.68 10 1 10 C-1.29404844 6.55892734 -1.26293056 5.03160191 -1 1 C-0.67 0.67 -0.34 0.34 0 0 Z " fill="#CCE5EC" transform="translate(199,249)"/>
<path d="M0 0 C2.475 0.99 2.475 0.99 5 2 C4.34 4.97 3.68 7.94 3 11 C1.68 10.34 0.36 9.68 -1 9 C-0.67 6.03 -0.34 3.06 0 0 Z " fill="#E0EEF3" transform="translate(219,267)"/>
<path d="M0 0 C2 2 2 2 2.23046875 4.609375 C2.08681246 15.10934394 2.08681246 15.10934394 1 20 C0.34 19.67 -0.32 19.34 -1 19 C-1.09507063 12.56688704 -1.15316726 6.34241995 0 0 Z " fill="#185540" transform="translate(256,213)"/>
<path d="M0 0 C1.01333399 3.15259465 0.81126663 4.84507423 0 8 C-0.03888349 10.33300933 -0.0448635 12.66709801 0 15 C-0.99 15 -1.98 15 -3 15 C-4.00846437 10.20979426 -4.58033208 7.32006978 -2.0625 3 C-1.381875 2.01 -0.70125 1.02 0 0 Z " fill="#22A275" transform="translate(230,183)"/>
<path d="M0 0 C1.8125 0.1875 1.8125 0.1875 4 1 C5.01187895 2.65948148 6.0126546 4.32580562 7 6 C9.9254644 6.2236068 9.9254644 6.2236068 12 5 C12 6.98 12 8.96 12 11 C6.80546349 9.58330822 3.33817117 6.07891809 0 2 C0 1.34 0 0.68 0 0 Z M7 5 C9 6 9 6 9 6 Z " fill="#0C212D" transform="translate(233,276)"/>
<path d="M0 0 C0.66 0 1.32 0 2 0 C4.68219822 5.36439644 5.3152595 9.01006953 5 15 C4.34 14.67 3.68 14.34 3 14 C2.29508733 11.67793475 1.62787571 9.34406932 1 7 C0.67 6.67 0.34 6.34 0 6 C-0.04080783 4.00041636 -0.04254356 1.99954746 0 0 Z " fill="#193B3F" transform="translate(240,257)"/>
<path d="M0 0 C0.33 0 0.66 0 1 0 C1.19412181 1.47831221 1.38012131 2.95769316 1.5625 4.4375 C1.66691406 5.26121094 1.77132813 6.08492187 1.87890625 6.93359375 C1.91886719 7.61550781 1.95882813 8.29742187 2 9 C1.67 9.33 1.34 9.66 1 10 C0.95919217 11.99958364 0.95745644 14.00045254 1 16 C-1.97 15.505 -1.97 15.505 -5 15 C-4.58427734 14.00419922 -4.58427734 14.00419922 -4.16015625 12.98828125 C-3.79792969 12.10527344 -3.43570312 11.22226563 -3.0625 10.3125 C-2.52302734 9.00732422 -2.52302734 9.00732422 -1.97265625 7.67578125 C-1.0429688 5.11820735 -0.45837375 2.6778677 0 0 Z " fill="#D2EEEC" transform="translate(277,217)"/>
<path d="M0 0 C6.02770138 0.47587116 10.76678289 3.19722957 16 6 C14.02 6.99 14.02 6.99 12 8 C12 7.34 12 6.68 12 6 C7.08417923 4.48046291 7.08417923 4.48046291 2 4 C1.34 3.34 0.68 2.68 0 2 C0 1.34 0 0.68 0 0 Z " fill="#257F66" transform="translate(192,219)"/>
<path d="M0 0 C0.66 0.33 1.32 0.66 2 1 C1.67 2.98 1.34 4.96 1 7 C0.01 7 -0.98 7 -2 7 C-3.70532323 8.94009522 -3.70532323 8.94009522 -5 11 C-5.99 10.67 -6.98 10.34 -8 10 C-5.36 6.7 -2.72 3.4 0 0 Z " fill="#D3E7EA" transform="translate(264,239)"/>
<path d="M0 0 C2.475 0.99 2.475 0.99 5 2 C5.09945415 8.11090483 5.0712828 13.97403427 4 20 C3.67 20 3.34 20 3 20 C3 14.39 3 8.78 3 3 C2.34 3 1.68 3 1 3 C0.67 2.01 0.34 1.02 0 0 Z " fill="#23755A" transform="translate(252,200)"/>
<path d="M0 0 C1.1446875 0.2784375 1.1446875 0.2784375 2.3125 0.5625 C5.08967375 1.22819173 5.08967375 1.22819173 8 0 C7.67 1.32 7.34 2.64 7 4 C7.99 4.33 8.98 4.66 10 5 C10 5.66 10 6.32 10 7 C8.51515588 6.60404157 7.0371169 6.18249294 5.5625 5.75 C4.73878906 5.51796875 3.91507813 5.2859375 3.06640625 5.046875 C1 4 1 4 0.21484375 1.890625 C0.14394531 1.26671875 0.07304687 0.6428125 0 0 Z " fill="#CCDFE5" transform="translate(173,345)"/>
<path d="M0 0 C1.4540625 0.0309375 1.4540625 0.0309375 2.9375 0.0625 C2.9375 3.0325 2.9375 6.0025 2.9375 9.0625 C0.28997996 6.48465154 -2.00682065 4.14601902 -4.0625 1.0625 C-3.0625 0.0625 -3.0625 0.0625 0 0 Z " fill="#0B2E2F" transform="translate(242.0625,238.9375)"/>
<path d="M0 0 C1 2 1 2 0.44140625 3.9453125 C0.15136719 4.66460937 -0.13867188 5.38390625 -0.4375 6.125 C-0.72496094 6.84945312 -1.01242187 7.57390625 -1.30859375 8.3203125 C-1.53675781 8.87460938 -1.76492188 9.42890625 -2 10 C-2.66 10 -3.32 10 -4 10 C-4.33 10.66 -4.66 11.32 -5 12 C-5.44041451 6.71502591 -5.44041451 6.71502591 -5 4 C-2.5 1.5 -2.5 1.5 0 0 Z " fill="#0B5841" transform="translate(270,224)"/>
<path d="M0 0 C-0.33 0.99 -0.66 1.98 -1 3 C-2.36125 2.938125 -2.36125 2.938125 -3.75 2.875 C-6.8782046 2.99531556 -8.38614006 3.3914708 -11 5 C-11 4.01 -11 3.02 -11 2 C-7.14864878 -1.17170101 -4.74352223 -1.21345918 0 0 Z " fill="#03131C" transform="translate(272,294)"/>
<path d="M0 0 C1.670625 0.061875 1.670625 0.061875 3.375 0.125 C0.7885416 2.7114584 -1.9188548 3.74771883 -5.25 5.25 C-6.43851562 5.78882813 -7.62703125 6.32765625 -8.8515625 6.8828125 C-9.76679688 7.29273438 -10.68203125 7.70265625 -11.625 8.125 C-11.625 7.135 -11.625 6.145 -11.625 5.125 C-10.67625 4.67125 -9.7275 4.2175 -8.75 3.75 C-1.64772727 0.05681818 -1.64772727 0.05681818 0 0 Z " fill="#D2F8EF" transform="translate(299.625,219.875)"/>
<path d="M0 0 C1.48206495 0.254496 2.96068615 0.52911762 4.4375 0.8125 C5.67306641 1.03873047 5.67306641 1.03873047 6.93359375 1.26953125 C7.95646484 1.63111328 7.95646484 1.63111328 9 2 C9.33 2.99 9.66 3.98 10 5 C3.375 5.25 3.375 5.25 0 3 C0 2.01 0 1.02 0 0 Z " fill="#EBF9FA" transform="translate(171,210)"/>
<path d="M0 0 C1.98 1.65 3.96 3.3 6 5 C4 7 4 7 1.375 7.125 C0.59125 7.08375 -0.1925 7.0425 -1 7 C-1 3 -1 3 0 0 Z " fill="#D0E3E7" transform="translate(224,269)"/>
<path d="M0 0 C2.97 0.33 5.94 0.66 9 1 C7.02 1.99 7.02 1.99 5 3 C3.98758315 4.32392972 2.98560611 5.65599167 2 7 C1.34 7 0.68 7 0 7 C-0.93423645 3.98968256 -1.04449911 3.13349732 0 0 Z " fill="#247964" transform="translate(175,215)"/>
<path d="M0 0 C0.89203125 0.00902344 1.7840625 0.01804687 2.703125 0.02734375 C3.37859375 0.03894531 4.0540625 0.05054688 4.75 0.0625 C2.06907309 2.74342691 0.35832637 2.44920257 -3.375 2.6875 C-4.47070312 2.76226562 -5.56640625 2.83703125 -6.6953125 2.9140625 C-7.53835938 2.96304687 -8.38140625 3.01203125 -9.25 3.0625 C-9.25 2.4025 -9.25 1.7425 -9.25 1.0625 C-6.09493858 0.12630187 -3.28413498 -0.0432123 0 0 Z " fill="#7C979E" transform="translate(314.25,352.9375)"/>
<path d="M0 0 C0.99 0 1.98 0 3 0 C3.33 2.97 3.66 5.94 4 9 C0 7 0 7 -0.8125 5.0625 C-1 3 -1 3 0 0 Z " fill="#072329" transform="translate(188,272)"/>
<path d="M0 0 C2.475 0.495 2.475 0.495 5 1 C4.67 3.97 4.34 6.94 4 10 C3.67 9.01 3.34 8.02 3 7 C2.34 7 1.68 7 1 7 C0.67 4.69 0.34 2.38 0 0 Z " fill="#F2F9FA" transform="translate(275,188)"/>
<path d="M0 0 C3.37462715 0.54723683 5.08235 1.0549 8 3 C7.01 3 6.02 3 5 3 C4.67 3.66 4.34 4.32 4 5 C2.68 5 1.36 5 0 5 C-0.33 4.01 -0.66 3.02 -1 2 C-0.67 1.34 -0.34 0.68 0 0 Z M3 5 C3.33 5.66 3.66 6.32 4 7 C3.34 6.67 2.68 6.34 2 6 C2.33 5.67 2.66 5.34 3 5 Z " fill="#D9E2E7" transform="translate(209,296)"/>
<path d="M0 0 C0.99 0.66 1.98 1.32 3 2 C2 5 2 5 0.125 6.1875 C-2 7 -2 7 -5 7 C-3.70700306 4.11562221 -2.34058637 2.12780579 0 0 Z " fill="#0A1B23" transform="translate(294,288)"/>
<path d="M0 0 C4.00972202 3.67557852 6.45335415 7.18966896 9 12 C8.01 12.495 8.01 12.495 7 13 C6.7525 12.4225 6.505 11.845 6.25 11.25 C5.08361856 8.88143237 5.08361856 8.88143237 2.9375 7.0625 C0.71029591 4.69160532 0.35370563 3.18335068 0 0 Z " fill="#34B180" transform="translate(263,174)"/>
<path d="M0 0 C3.96 1.98 3.96 1.98 8 4 C7.01 5.485 7.01 5.485 6 7 C3.375 7.1875 3.375 7.1875 1 7 C0.67 4.69 0.34 2.38 0 0 Z " fill="#31DC95" transform="translate(256,169)"/>
<path d="M0 0 C0.66 0.33 1.32 0.66 2 1 C2.625 3.0625 2.625 3.0625 3 5 C1.02 5.66 -0.96 6.32 -3 7 C-3 3.48283697 -2.17554415 2.62878252 0 0 Z " fill="#29DC99" transform="translate(241,170)"/>
<path d="M0 0 C2.12508244 3.18762365 2.5020163 5.26512223 3 9 C3.66 9 4.32 9 5 9 C5.33 11.31 5.66 13.62 6 16 C2.57680639 11.92476951 0.15506633 7.42937249 -0.1875 2.0625 C-0.125625 1.381875 -0.06375 0.70125 0 0 Z " fill="#92A8B5" transform="translate(149,318)"/>
<path d="M0 0 C0.66 0 1.32 0 2 0 C1.71572583 1.58467728 1.42225182 3.1677057 1.125 4.75 C0.96257812 5.63171875 0.80015625 6.5134375 0.6328125 7.421875 C0.03203736 9.86947744 -0.77997117 11.80599857 -2 14 C-2.144375 13.401875 -2.28875 12.80375 -2.4375 12.1875 C-2.8872439 10.43849596 -3.42892341 8.71322977 -4 7 C-3.01 7 -2.02 7 -1 7 C-0.67 4.69 -0.34 2.38 0 0 Z " fill="#C8D7DC" transform="translate(350,317)"/>
<path d="M0 0 C0.66 0.33 1.32 0.66 2 1 C0.55609075 4.80666984 -1.34952803 6.26602582 -5 8 C-5.66 7.67 -6.32 7.34 -7 7 C-4.69 4.69 -2.38 2.38 0 0 Z " fill="#DAE6E8" transform="translate(278,266)"/>
<path d="M0 0 C-0.66 1.65 -1.32 3.3 -2 5 C-2.66 5 -3.32 5 -4 5 C-4.66 6.32 -5.32 7.64 -6 9 C-6.66 8.34 -7.32 7.68 -8 7 C-7.34 7 -6.68 7 -6 7 C-6 5.35 -6 3.7 -6 2 C-2.25 0 -2.25 0 0 0 Z " fill="#E2F3FA" transform="translate(325,264)"/>
<path d="M0 0 C-1.20842856 4.43090471 -2.51668565 6.98112756 -6 10 C-6.25 6.6875 -6.25 6.6875 -6 3 C-3.96080228 0.89282902 -2.95416573 0 0 0 Z " fill="#275D58" transform="translate(321,262)"/>
<path d="M0 0 C0.99 0.33 1.98 0.66 3 1 C3.33 3.64 3.66 6.28 4 9 C4.99 9.33 5.98 9.66 7 10 C6.01 10.33 5.02 10.66 4 11 C3.54625 10.236875 3.0925 9.47375 2.625 8.6875 C1.46175508 6.76367186 0.2470585 4.87058776 -1 3 C-1.33 2.34 -1.66 1.68 -2 1 C-1.34 0.67 -0.68 0.34 0 0 Z " fill="#072F32" transform="translate(226,264)"/>
<path d="M0 0 C0.33 0.66 0.66 1.32 1 2 C1.66 2 2.32 2 3 2 C2.60196439 4.88575819 2.20990931 5.82189513 -0.0625 7.75 C-1.0215625 8.36875 -1.0215625 8.36875 -2 9 C-2.125 5.625 -2.125 5.625 -2 2 C-1.34 1.34 -0.68 0.68 0 0 Z " fill="#12493C" transform="translate(259,238)"/>
<path d="M0 0 C-5.946072 3.03910346 -11.36906706 3.65226572 -18 4 C-15.07089056 2.04726038 -12.91867709 1.24603637 -9.5625 0.3125 C-8.61503906 0.04050781 -7.66757812 -0.23148438 -6.69140625 -0.51171875 C-4.01081763 -0.99803744 -2.53712417 -0.89369149 0 0 Z " fill="#39AB86" transform="translate(323,216)"/>
<path d="M0 0 C2.10478604 0.11409682 4.20884577 0.24165361 6.3125 0.375 C7.48425781 0.44460937 8.65601563 0.51421875 9.86328125 0.5859375 C13 1 13 1 16 3 C16 3.66 16 4.32 16 5 C10.72 3.68 5.44 2.36 0 1 C0 0.67 0 0.34 0 0 Z " fill="#BDE6DE" transform="translate(184,216)"/>
<path d="M0 0 C1.98 0 3.96 0 6 0 C6 1.32 6 2.64 6 4 C4.125 4.625 4.125 4.625 2 5 C1.34 4.34 0.68 3.68 0 3 C0 2.01 0 1.02 0 0 Z " fill="#466B72" transform="translate(247,304)"/>
<path d="M0 0 C0.33 1.32 0.66 2.64 1 4 C-1.54702616 5.27351308 -2.4282945 4.80191925 -5.125 4.0625 C-5.84945313 3.86785156 -6.57390625 3.67320312 -7.3203125 3.47265625 C-7.87460937 3.31667969 -8.42890625 3.16070312 -9 3 C-5.87496336 0.91664224 -3.72863529 0 0 0 Z " fill="#CDDCE2" transform="translate(287,297)"/>
<path d="M0 0 C2.375 -0.1875 2.375 -0.1875 5 0 C5.66 0.99 6.32 1.98 7 3 C2.545 3.495 2.545 3.495 -2 4 C-1.34 2.68 -0.68 1.36 0 0 Z " fill="#C6E5E2" transform="translate(296,249)"/>
<path d="M0 0 C0.30421875 0.62132812 0.6084375 1.24265625 0.921875 1.8828125 C1.95077837 4.00520716 1.95077837 4.00520716 3.25 5.875 C4.35791473 9.01409174 3.22278569 11.01096831 2 14 C1.67 14 1.34 14 1 14 C-0.20568053 9.32798795 -0.09382426 4.78503708 0 0 Z " fill="#ABBDC3" transform="translate(147,304)"/>
<path d="M0 0 C0.33 0.66 0.66 1.32 1 2 C2.175625 1.9071875 2.175625 1.9071875 3.375 1.8125 C4.674375 1.9053125 4.674375 1.9053125 6 2 C6.99 3.485 6.99 3.485 8 5 C5 6 5 6 2.375 5.25 C0 4 0 4 -1 1 C-0.67 0.67 -0.34 0.34 0 0 Z " fill="#E7F7F9" transform="translate(213,225)"/>
<path d="M0 0 C-1 2 -1 2 -3.3125 3.125 C-6 4 -6 4 -10 4 C-10 3.34 -10 2.68 -10 2 C-6.49223216 0.39644899 -3.85645121 -0.22036864 0 0 Z " fill="#76949E" transform="translate(329,349)"/>
<path d="M0 0 C2.375 0.6875 2.375 0.6875 5 2 C6.3125 4.625 6.3125 4.625 7 7 C6.01 7.495 6.01 7.495 5 8 C4.16382818 6.8562364 3.33113541 5.70992861 2.5 4.5625 C2.0359375 3.92441406 1.571875 3.28632813 1.09375 2.62890625 C0 1 0 1 0 0 Z " fill="#97AEBA" transform="translate(155,334)"/>
<path d="M0 0 C0.66 0 1.32 0 2 0 C0.64531705 4.87685861 -1.71675909 6.48592381 -6 9 C-6 7.68 -6 6.36 -6 5 C-4.35 4.67 -2.7 4.34 -1 4 C-0.67 2.68 -0.34 1.36 0 0 Z " fill="#D1EDE9" transform="translate(301,254)"/>
<path d="M0 0 C0 3 0 3 -1.1875 4.6875 C-3.55741722 6.40364695 -5.14025666 6.23187108 -8 6 C-5.79072873 2.51167694 -3.91402949 1.26941497 0 0 Z " fill="#D4E4E4" transform="translate(290,257)"/>
<path d="M0 0 C-0.75 2.4375 -0.75 2.4375 -2 5 C-4.125 5.8125 -4.125 5.8125 -6 6 C-6.33 5.34 -6.66 4.68 -7 4 C-6.34 4 -5.68 4 -5 4 C-5 3.01 -5 2.02 -5 1 C-2 0 -2 0 0 0 Z " fill="#DDEAEE" transform="translate(265,250)"/>
<path d="M0 0 C0.33 0.66 0.66 1.32 1 2 C1.99 2 2.98 2 4 2 C3.67 3.32 3.34 4.64 3 6 C2.2575 5.54625 1.515 5.0925 0.75 4.625 C-1.46930578 3.31359204 -3.67967822 2.11719197 -6 1 C-4.02 0.67 -2.04 0.34 0 0 Z " fill="#1C4B4F" transform="translate(206,247)"/>
<path d="M0 0 C-0.66 1.65 -1.32 3.3 -2 5 C-2.99 5 -3.98 5 -5 5 C-5.33 4.34 -5.66 3.68 -6 3 C-3.375 0 -3.375 0 0 0 Z " fill="#E9F5FC" transform="translate(319,274)"/>
<path d="M0 0 C3.53600465 1.91135386 5.78972846 3.62642766 8 7 C5.125 6.3125 5.125 6.3125 2 5 C0.625 2.375 0.625 2.375 0 0 Z " fill="#1E474A" transform="translate(199,258)"/>
<path d="M0 0 C0.33 0 0.66 0 1 0 C1.25 7.625 1.25 7.625 -1 11 C-1.33 8.03 -1.66 5.06 -2 2 C-1.34 2 -0.68 2 0 2 C0 1.34 0 0.68 0 0 Z " fill="#247660" transform="translate(326,239)"/>
<path d="M0 0 C2.31 1.98 4.62 3.96 7 6 C6.01 6 5.02 6 4 6 C2.66018514 6.3062434 1.32488113 6.63451555 0 7 C0 4.69 0 2.38 0 0 Z " fill="#155A55" transform="translate(225,239)"/>
<path d="M0 0 C0.66 0.99 1.32 1.98 2 3 C1.01 3.99 0.02 4.98 -1 6 C-1.99 5.34 -2.98 4.68 -4 4 C-3.67 3.01 -3.34 2.02 -3 1 C-2.01 0.67 -1.02 0.34 0 0 Z " fill="#0A463A" transform="translate(238,233)"/>
<path d="M0 0 C0.33 0.99 0.66 1.98 1 3 C-0.423125 3.185625 -0.423125 3.185625 -1.875 3.375 C-5.08667191 3.71687177 -5.08667191 3.71687177 -7 6 C-6.625 3.5625 -6.625 3.5625 -6 1 C-4 0 -4 0 0 0 Z " fill="#CCF4EC" transform="translate(253,201)"/>
<path d="M0 0 C4.875 4.625 4.875 4.625 6 8 C6.66 8.33 7.32 8.66 8 9 C5.6875 8.8125 5.6875 8.8125 3 8 C0.79029126 5.10451959 0 3.66842255 0 0 Z " fill="#D0DDE1" transform="translate(184,274)"/>
<path d="M0 0 C2.86724686 0.57344937 3.8614515 0.8614515 6 3 C6.33 3.99 6.66 4.98 7 6 C6.01 6 5.02 6 4 6 C0 1.54285714 0 1.54285714 0 0 Z " fill="#275747" transform="translate(228,229)"/>
<path d="M0 0 C2.64 0 5.28 0 8 0 C7.67 0.99 7.34 1.98 7 3 C5.35 3.33 3.7 3.66 2 4 C2 3.34 2 2.68 2 2 C1.34 1.34 0.68 0.68 0 0 Z " fill="#12AA74" transform="translate(309,219)"/>
<path d="M0 0 C0.99 0 1.98 0 3 0 C1.60667426 3.36720387 0.0210714 4.9859524 -3 7 C-2.25 2.25 -2.25 2.25 0 0 Z " fill="#90B6BD" transform="translate(341,336)"/>
<path d="M0 0 C0.33 0 0.66 0 1 0 C0.67 2.31 0.34 4.62 0 7 C-1.65 6.67 -3.3 6.34 -5 6 C-5 5.01 -5 4.02 -5 3 C-3.35 3.33 -1.7 3.66 0 4 C0 2.68 0 1.36 0 0 Z " fill="#2D4E56" transform="translate(253,304)"/>
<path d="M0 0 C0.66 0.99 1.32 1.98 2 3 C0.625 4.5 0.625 4.5 -1 6 C-1.66 6 -2.32 6 -3 6 C-3.33 6.66 -3.66 7.32 -4 8 C-3.6875 5.125 -3.6875 5.125 -3 2 C-2.01 1.34 -1.02 0.68 0 0 Z " fill="#DAE4E9" transform="translate(268,276)"/>
<path d="M0 0 C1.98 0.495 1.98 0.495 4 1 C4 1.66 4 2.32 4 3 C4.66 3 5.32 3 6 3 C5.67 3.66 5.34 4.32 5 5 C2.03 4.505 2.03 4.505 -1 4 C-0.67 2.68 -0.34 1.36 0 0 Z " fill="#076C4E" transform="translate(298,243)"/>
<path d="M0 0 C0.99 0.33 1.98 0.66 3 1 C1.1875 3 1.1875 3 -1 5 C-1.99 5 -2.98 5 -4 5 C-2.25 1.125 -2.25 1.125 0 0 Z " fill="#257E61" transform="translate(288,228)"/>
<path d="M0 0 C1.32 0.66 2.64 1.32 4 2 C3.54625 2.37125 3.0925 2.7425 2.625 3.125 C0.52970606 5.54264685 -0.12013285 7.95430602 -1 11 C-2.31625194 8.36749612 -1.74813658 7.19820944 -1.0625 4.375 C-0.86785156 3.55773437 -0.67320312 2.74046875 -0.47265625 1.8984375 C-0.23869141 0.95871094 -0.23869141 0.95871094 0 0 Z " fill="#2C9271" transform="translate(245,200)"/>
<path d="M0 0 C3.96 1.98 3.96 1.98 8 4 C4 6 4 6 2 6 C1.34 4.02 0.68 2.04 0 0 Z " fill="#DCE7EB" transform="translate(200,290)"/>
<path d="M0 0 C0.66 0.33 1.32 0.66 2 1 C1.0479279 2.00596297 0.08812654 3.00461563 -0.875 4 C-1.40867187 4.556875 -1.94234375 5.11375 -2.4921875 5.6875 C-4 7 -4 7 -6 7 C-6 6.01 -6 5.02 -6 4 C-5.01 3.67 -4.02 3.34 -3 3 C-1.33289654 1.50014391 -1.33289654 1.50014391 0 0 Z " fill="#23373B" transform="translate(274,268)"/>
<path d="M0 0 C1.32 0.33 2.64 0.66 4 1 C4 1.66 4 2.32 4 3 C3.34 3 2.68 3 2 3 C1.67 4.98 1.34 6.96 1 9 C0.67 9 0.34 9 0 9 C0 6.03 0 3.06 0 0 Z " fill="#ABC0BE" transform="translate(255,260)"/>
<path d="M0 0 C1.32 0.33 2.64 0.66 4 1 C0.535 3.97 0.535 3.97 -3 7 C-3 6.01 -3 5.02 -3 4 C-2.34 4 -1.68 4 -1 4 C-0.67 2.68 -0.34 1.36 0 0 Z " fill="#3F6860" transform="translate(289,252)"/>
<path d="M0 0 C2.64 0.33 5.28 0.66 8 1 C6.625 3 6.625 3 5 5 C4.34 5 3.68 5 3 5 C3 4.34 3 3.68 3 3 C1.54166642 1.37485532 1.54166642 1.37485532 0 0 Z " fill="#1B7F63" transform="translate(184,217)"/>
<path d="M0 0 C0.66 0 1.32 0 2 0 C2 1.32 2 2.64 2 4 C2.99 4.33 3.98 4.66 5 5 C2.69 4.67 0.38 4.34 -2 4 C-1.34 2.68 -0.68 1.36 0 0 Z " fill="#0E1A23" transform="translate(211,292)"/>
<path d="M0 0 C0.33 0 0.66 0 1 0 C0.51171875 6.0546875 0.51171875 6.0546875 0 8 C-0.99 8.66 -1.98 9.32 -3 10 C-2.21302675 6.58978257 -1.12880057 3.31114834 0 0 Z " fill="#B7DBDC" transform="translate(324,254)"/>
<path d="M0 0 C0.66 0 1.32 0 2 0 C2.625 2.3125 2.625 2.3125 3 5 C2.34 5.99 1.68 6.98 1 8 C0.67 5.36 0.34 2.72 0 0 Z " fill="#0C2D32" transform="translate(178,258)"/>
<path d="M0 0 C0 1.32 0 2.64 0 4 C-0.66 4 -1.32 4 -2 4 C-2.33 4.66 -2.66 5.32 -3 6 C-3.66 5.01 -4.32 4.02 -5 3 C-2.25 0 -2.25 0 0 0 Z " fill="#13634C" transform="translate(281,235)"/>
<path d="M0 0 C1.65 0 3.3 0 5 0 C5.33 0.66 5.66 1.32 6 2 C4.35 2.66 2.7 3.32 1 4 C0.67 2.68 0.34 1.36 0 0 Z " fill="#26EBA5" transform="translate(247,166)"/>
<path d="M0 0 C0.99 0.33 1.98 0.66 3 1 C1.02 3.97 1.02 3.97 -1 7 C-1.66 6.67 -2.32 6.34 -3 6 C-1.125 1.125 -1.125 1.125 0 0 Z " fill="#EEF7FA" transform="translate(159,161)"/>
</svg>
